<svg width="20" height="20" viewBox="0 0 20 20" fill="none" xmlns="http://www.w3.org/2000/svg">
<path fill-rule="evenodd" clip-rule="evenodd" d="M10.8337 2.49999C10.8337 2.03975 10.4606 1.66666 10.0004 1.66666C9.54014 1.66666 9.16704 2.03975 9.16704 2.49999V2.97571C6.34027 3.37993 4.16704 5.81018 4.16704 8.74908L4.16704 12.0827C4.16704 12.0827 4.16705 12.0826 4.16704 12.0827C4.16696 12.0843 4.16639 12.0955 4.16278 12.1174C4.15844 12.1436 4.15074 12.1793 4.13803 12.2252C4.11225 12.3183 4.07124 12.4342 4.01393 12.5712C3.89905 12.8459 3.73708 13.1622 3.55795 13.4813C3.22116 14.0813 3.0514 14.7962 3.17885 15.476C3.31325 16.193 3.77474 16.8182 4.56293 17.1183C5.26701 17.3864 6.20423 17.6316 7.44193 17.7775C7.47137 17.803 7.5062 17.8323 7.5462 17.8643C7.67144 17.9644 7.85037 18.0943 8.07651 18.2235C8.52531 18.48 9.18889 18.75 10.0004 18.75C10.8119 18.75 11.4754 18.48 11.9242 18.2235C12.1504 18.0943 12.3293 17.9644 12.4545 17.8643C12.4945 17.8323 12.5294 17.803 12.5588 17.7775C13.7965 17.6316 14.7337 17.3864 15.4378 17.1183C16.226 16.8182 16.6875 16.193 16.8219 15.476C16.9493 14.7962 16.7796 14.0813 16.4428 13.4813C16.2637 13.1622 16.1017 12.8459 15.9868 12.5712C15.9295 12.4342 15.8885 12.3183 15.8627 12.2252C15.85 12.1793 15.8423 12.1436 15.838 12.1174C15.8344 12.0955 15.8338 12.0845 15.8337 12.083C15.8337 12.0828 15.8337 12.083 15.8337 12.083L15.8337 12.0759V8.74948C15.8337 5.81066 13.6605 3.38 10.8337 2.97572V2.49999ZM5.83371 8.74908C5.83371 6.44809 7.69899 4.58332 10.0004 4.58332C12.3017 4.58332 14.167 6.4484 14.167 8.74948V12.0833C14.167 12.4691 14.3116 12.8852 14.4492 13.2143C14.5987 13.5717 14.7946 13.95 14.9895 14.2971C15.1789 14.6347 15.2241 14.9537 15.1838 15.1689C15.1504 15.3471 15.0613 15.4783 14.8448 15.5608C13.949 15.9018 12.437 16.25 10.0004 16.25C7.56377 16.25 6.05171 15.9018 5.156 15.5608C4.93945 15.4783 4.85038 15.3471 4.81698 15.1689C4.77662 14.9537 4.8218 14.6347 5.01128 14.2971C5.20615 13.95 5.40206 13.5717 5.55156 13.2143C5.68916 12.8852 5.83371 12.4691 5.83371 12.0833V8.74908Z" fill="#344054"/>
</svg>
