<svg width="16" height="16" viewBox="0 0 16 16" fill="none" xmlns="http://www.w3.org/2000/svg">
<path d="M8.00004 5.66668C8.00004 5.29849 7.70156 5.00001 7.33337 5.00001C6.96518 5.00001 6.66671 5.29849 6.66671 5.66668V9.00001C6.66671 9.3682 6.96518 9.66668 7.33337 9.66668H9.33337C9.70156 9.66668 10 9.3682 10 9.00001C10 8.63182 9.70156 8.33334 9.33337 8.33334H8.00004V5.66668Z" fill="#98A2B3"/>
<path fill-rule="evenodd" clip-rule="evenodd" d="M8.00004 1.33334C4.31814 1.33334 1.33337 4.31811 1.33337 8.00001C1.33337 11.6819 4.31814 14.6667 8.00004 14.6667C11.6819 14.6667 14.6667 11.6819 14.6667 8.00001C14.6667 4.31811 11.6819 1.33334 8.00004 1.33334ZM2.66671 8.00001C2.66671 5.05449 5.05452 2.66668 8.00004 2.66668C10.9456 2.66668 13.3334 5.05449 13.3334 8.00001C13.3334 10.9455 10.9456 13.3333 8.00004 13.3333C5.05452 13.3333 2.66671 10.9455 2.66671 8.00001Z" fill="#98A2B3"/>
</svg>
