<svg width="16" height="16" viewBox="0 0 16 16" fill="none" xmlns="http://www.w3.org/2000/svg">
<path d="M2.66663 4.00001C2.66663 3.63182 2.9651 3.33334 3.33329 3.33334H12.6666C13.0348 3.33334 13.3333 3.63182 13.3333 4.00001C13.3333 4.3682 13.0348 4.66668 12.6666 4.66668H3.33329C2.9651 4.66668 2.66663 4.3682 2.66663 4.00001Z" fill="#667185"/>
<path d="M3.99996 8.00001C3.99996 7.63182 4.29844 7.33334 4.66663 7.33334H11.3333C11.7015 7.33334 12 7.63182 12 8.00001C12 8.3682 11.7015 8.66668 11.3333 8.66668H4.66663C4.29844 8.66668 3.99996 8.3682 3.99996 8.00001Z" fill="#667185"/>
<path d="M5.99996 11.3333C5.63177 11.3333 5.33329 11.6318 5.33329 12C5.33329 12.3682 5.63177 12.6667 5.99996 12.6667H9.99996C10.3681 12.6667 10.6666 12.3682 10.6666 12C10.6666 11.6318 10.3681 11.3333 9.99996 11.3333H5.99996Z" fill="#667185"/>
</svg>
