<svg width="20" height="20" viewBox="0 0 20 20" fill="none" xmlns="http://www.w3.org/2000/svg">
<path fill-rule="evenodd" clip-rule="evenodd" d="M11.4152 1.75393L10.4166 2.66167L9.41813 1.75393C7.85608 0.333881 5.67246 1.60955 5.60896 3.33334H3.33331C1.9526 3.33334 0.833313 4.45263 0.833313 5.83334V7.40741C0.833313 8.07752 1.20797 8.66012 1.75924 8.95717V15.8333C1.75924 17.6743 3.25162 19.1667 5.09257 19.1667H14.9074C16.7483 19.1667 18.2407 17.6743 18.2407 15.8333V8.95717C18.792 8.66012 19.1666 8.07752 19.1666 7.40741V5.83334C19.1666 4.45263 18.0474 3.33334 16.6666 3.33334H15.2243C15.1608 1.60955 12.9772 0.333881 11.4152 1.75393ZM6.68192 5.00001C6.67226 5.00017 6.6626 5.00017 6.65295 5.00001H3.33331C2.87308 5.00001 2.49998 5.3731 2.49998 5.83334V7.40741C2.49998 7.45855 2.54143 7.50001 2.59257 7.50001H17.4074C17.4585 7.50001 17.5 7.45855 17.5 7.40741V5.83334C17.5 5.3731 17.1269 5.00001 16.6666 5.00001H14.1803C14.1707 5.00017 14.161 5.00017 14.1514 5.00001H6.68192ZM11.25 9.16667H8.74998V11.4063C8.74998 11.435 8.75694 11.4485 8.76221 11.4565C8.76948 11.4675 8.78276 11.4805 8.8026 11.49C8.82244 11.4995 8.84087 11.5018 8.85402 11.5006C8.86355 11.4997 8.87844 11.4967 8.90082 11.4788C9.54343 10.9647 10.4565 10.9647 11.0991 11.4788C11.1215 11.4967 11.1364 11.4997 11.1459 11.5006C11.1591 11.5018 11.1775 11.4995 11.1974 11.49C11.2172 11.4805 11.2305 11.4675 11.2377 11.4565C11.243 11.4485 11.25 11.435 11.25 11.4063V9.16667ZM7.08331 9.16667V11.4063C7.08331 12.8817 8.78992 13.7019 9.94198 12.7803C9.97589 12.7531 10.0241 12.7531 10.058 12.7803C11.21 13.7019 12.9166 12.8817 12.9166 11.4063V9.16667H16.5741V15.8333C16.5741 16.7538 15.8279 17.5 14.9074 17.5H5.09257C4.1721 17.5 3.42591 16.7538 3.42591 15.8333V9.16667H7.08331ZM8.29701 2.98716L8.67781 3.33334H7.29782C7.36787 2.91538 7.9061 2.63179 8.29701 2.98716ZM13.5355 3.33334C13.4654 2.91538 12.9272 2.63179 12.5363 2.98716L12.1555 3.33334H13.5355Z" fill="#667185"/>
</svg>
