<svg width="20" height="20" viewBox="0 0 20 20" fill="none" xmlns="http://www.w3.org/2000/svg">
<path fill-rule="evenodd" clip-rule="evenodd" d="M8.33335 1.66667C7.41288 1.66667 6.66669 2.41286 6.66669 3.33334V6.66667H3.33335C2.41288 6.66667 1.66669 7.41286 1.66669 8.33334V11.6667C1.66669 12.5871 2.41288 13.3333 3.33335 13.3333H6.66669V16.6667C6.66669 17.5871 7.41288 18.3333 8.33335 18.3333H11.6667C12.5872 18.3333 13.3334 17.5871 13.3334 16.6667V13.3333H16.6667C17.5872 13.3333 18.3334 12.5871 18.3334 11.6667V8.33334C18.3334 7.41286 17.5872 6.66667 16.6667 6.66667H13.3334V3.33334C13.3334 2.41286 12.5872 1.66667 11.6667 1.66667H8.33335ZM6.66669 8.33334C7.58716 8.33334 8.33335 7.58715 8.33335 6.66667V3.33334H11.6667V6.66667C11.6667 7.58715 12.4129 8.33334 13.3334 8.33334H16.6667V11.6667H13.3334C12.4129 11.6667 11.6667 12.4129 11.6667 13.3333V16.6667H8.33335V13.3333C8.33335 12.4129 7.58716 11.6667 6.66669 11.6667H3.33335V8.33334H6.66669Z" fill="#EB5017"/>
</svg>
