<svg width="20" height="20" viewBox="0 0 20 20" fill="none" xmlns="http://www.w3.org/2000/svg">
<path d="M5.00002 7.08334C5.00002 6.62311 5.37312 6.25001 5.83335 6.25001H10C10.4603 6.25001 10.8334 6.62311 10.8334 7.08334C10.8334 7.54358 10.4603 7.91668 10 7.91668H5.83335C5.37312 7.91668 5.00002 7.54358 5.00002 7.08334Z" fill="#667185"/>
<path d="M5.83335 9.58334C5.37312 9.58334 5.00002 9.95644 5.00002 10.4167C5.00002 10.8769 5.37312 11.25 5.83335 11.25H13.3334C13.7936 11.25 14.1667 10.8769 14.1667 10.4167C14.1667 9.95644 13.7936 9.58334 13.3334 9.58334H5.83335Z" fill="#667185"/>
<path fill-rule="evenodd" clip-rule="evenodd" d="M12.8334 16.625L14 15.75C14.2885 15.5336 14.6394 15.4167 15 15.4167C16.841 15.4167 18.3334 13.9243 18.3334 12.0833V5.41668C18.3334 3.57573 16.841 2.08334 15 2.08334H5.00002C3.15907 2.08334 1.66669 3.57573 1.66669 5.41668V12.0833C1.66669 13.9243 3.15907 15.4167 5.00002 15.4167H6.66669C7.0273 15.4167 7.37819 15.5336 7.66669 15.75L8.83335 16.625C10.0185 17.5139 11.6482 17.5139 12.8334 16.625ZM15 13.75C14.2788 13.75 13.577 13.9839 13 14.4167L11.8334 15.2917C11.2408 15.7361 10.4259 15.7361 9.83335 15.2917L8.66669 14.4167C8.0897 13.9839 7.38792 13.75 6.66669 13.75H5.00002C4.07955 13.75 3.33335 13.0038 3.33335 12.0833V5.41668C3.33335 4.4962 4.07955 3.75001 5.00002 3.75001H15C15.9205 3.75001 16.6667 4.4962 16.6667 5.41668V12.0833C16.6667 13.0038 15.9205 13.75 15 13.75Z" fill="#667185"/>
</svg>
