<svg width="20" height="20" viewBox="0 0 20 20" fill="none" xmlns="http://www.w3.org/2000/svg">
<path d="M8.55741 2.87587C9.22205 1.81915 10.7779 1.81915 11.4425 2.87587L13.0499 5.43149C13.2838 5.80329 13.6553 6.07011 14.0852 6.17507L17.0407 6.89653C18.2627 7.19485 18.7435 8.65755 17.9322 9.60896L15.9702 11.9099C15.6848 12.2446 15.5429 12.6763 15.5747 13.113L15.7939 16.1145C15.8845 17.3556 14.6259 18.2596 13.4598 17.7909L10.6398 16.6573C10.2296 16.4924 9.77036 16.4924 9.3601 16.6573L6.54011 17.7909C5.37407 18.2596 4.11538 17.3556 4.20601 16.1145L4.42518 13.113C4.45707 12.6763 4.31517 12.2446 4.02973 11.9099L2.0677 9.60896C1.25642 8.65755 1.7372 7.19485 2.95925 6.89653L5.9147 6.17507C6.34467 6.07011 6.71616 5.80329 6.95001 5.43149L8.55741 2.87587Z" fill="#F5B546"/>
</svg>
