<svg width="30" height="24" viewBox="0 0 30 24" fill="none" xmlns="http://www.w3.org/2000/svg">
    <path
        d="M16.5 1.5V22.5C16.5 23.3438 15.7969 24 15 24C14.1562 24 13.5 23.3438 13.5 22.5V1.5C13.5 0.703125 14.1562 0 15 0C15.7969 0 16.5 0.703125 16.5 1.5ZM25.5 4.5V19.5C25.5 20.3438 24.7969 21 24 21C23.1562 21 22.5 20.3438 22.5 19.5V4.5C22.5 3.70312 23.1562 3 24 3C24.7969 3 25.5 3.70312 25.5 4.5ZM12 6V18C12 18.8438 11.2969 19.5 10.5 19.5C9.65623 19.5 9 18.8438 9 18V6C9 5.20312 9.65623 4.5 10.5 4.5C11.2969 4.5 12 5.20312 12 6ZM21 7.5V16.5C21 17.3438 20.2969 18 19.5 18C18.6562 18 18 17.3438 18 16.5V7.5C18 6.70312 18.6562 6 19.5 6C20.2969 6 21 6.70312 21 7.5ZM7.5 10.5V13.5C7.5 14.3438 6.79688 15 6 15C5.15625 15 4.5 14.3438 4.5 13.5V10.5C4.5 9.70311 5.15625 9 6 9C6.79688 9 7.5 9.70311 7.5 10.5ZM0 12C0 11.2031 0.65625 10.5 1.5 10.5C2.29688 10.5 3 11.2031 3 12C3 12.8438 2.29688 13.5 1.5 13.5C0.65625 13.5 0 12.8438 0 12ZM27 12C27 11.2031 27.6562 10.5 28.5 10.5C29.2969 10.5 30 11.2031 30 12C30 12.8438 29.2969 13.5 28.5 13.5C27.6562 13.5 27 12.8438 27 12Z"
        fill="#EB5017" />
</svg>